<?xml version="1.0" encoding="UTF-8"?>
<svg version="1.1" xmlns="http://www.w3.org/2000/svg" width="2000" height="637">
<path d="M0 0 C36.63 0 73.26 0 111 0 C111.33 76.89 111.66 153.78 112 233 C115.96 229.37 119.92 225.74 124 222 C126.42445625 220.04596063 128.78904267 218.17585249 131.3125 216.375 C132.24533813 215.70162598 132.24533813 215.70162598 133.19702148 215.01464844 C139.88710424 210.25822734 146.83781212 206.00336986 154 202 C155.09441406 201.38382813 156.18882812 200.76765625 157.31640625 200.1328125 C178.51311687 188.87127793 203.18858139 182.99182808 227.15234375 182.76171875 C228.00161438 182.75187958 228.85088501 182.74204041 229.72589111 182.73190308 C262.90144565 182.42694041 294.06170728 185.47394064 324 201 C325.22708048 201.60056308 326.45496137 202.19949323 327.68359375 202.796875 C341.58925244 209.70894919 353.83038717 219.25866987 365 230 C365.78407227 230.73742432 365.78407227 230.73742432 366.58398438 231.48974609 C380.21967592 244.35191922 390.82898686 258.69597664 400 275 C400.36689941 275.63421875 400.73379883 276.2684375 401.11181641 276.921875 C416.14167198 302.98144254 423.81235243 332.39333166 428 362 C428.11859375 362.83660156 428.2371875 363.67320312 428.359375 364.53515625 C436.86067912 428.39614317 425.76631518 500.74888416 386 552.875 C380.96524587 559.2062232 375.58721436 565.15819339 370 571 C369.11441406 571.9384375 368.22882813 572.876875 367.31640625 573.84375 C341.7575884 600.25576496 307.77209585 615.5468899 272 622 C271.28231445 622.13277344 270.56462891 622.26554688 269.82519531 622.40234375 C223.99427026 630.47548047 174.74909584 619.85466127 136.72460938 593.25170898 C127.11616401 586.32590465 118.03083045 578.78719761 110.453125 569.64453125 C109.08037517 567.88429842 109.08037517 567.88429842 107 567 C106.67 571.95 106.34 576.9 106 582 C104.35 593.88 102.7 605.76 101 618 C67.67 618 34.34 618 0 618 C0 414.06 0 210.12 0 0 Z M141 314 C123.93361137 333.24399905 115.77202266 355.87382517 112 381 C111.84789062 381.98871094 111.69578125 382.97742188 111.5390625 383.99609375 C107.50063468 418.10443681 113.38234828 455.77047197 134.08984375 483.83203125 C136.31786753 486.63174479 138.61981585 489.32868589 141 492 C141.74894531 492.84433594 142.49789062 493.68867188 143.26953125 494.55859375 C160.15288357 512.50590525 183.22740417 521.7101983 207.5859375 523.22265625 C233.59347788 523.86036779 257.34353821 515.26793859 276.43603516 497.51220703 C301.00157447 473.75963905 310.49424263 439.48810265 311.16650391 406.13208008 C311.53117843 369.10065407 301.58268955 335.32568224 275.5625 308.25 C256.10854332 289.43113813 231.62887416 283.39061894 205.23046875 283.7265625 C180.33595377 284.49254758 158.14304688 296.24470144 141 314 Z " fill="#E01B48" transform="translate(866,5)"/>
<path d="M0 0 C2.94846068 0.00314748 5.8959015 -0.02035196 8.84423828 -0.0456543 C25.93213224 -0.10276993 42.82034094 1.6175099 59.47314453 5.56567383 C60.37234619 5.77691895 61.27154785 5.98816406 62.19799805 6.20581055 C85.33764868 11.85338538 107.89290507 21.50071452 127.34814453 35.31567383 C128.87761719 36.39075195 128.87761719 36.39075195 130.43798828 37.48754883 C137.32050576 42.48335302 143.66464636 47.96386001 149.80078125 53.83569336 C150.84446112 54.83392425 151.89309817 55.82699452 152.94628906 56.81518555 C166.15821653 69.24083059 176.61921412 83.44114285 185.34814453 99.31567383 C185.85788818 100.24234863 185.85788818 100.24234863 186.37792969 101.18774414 C199.33166083 125.11280854 207.02778384 151.3689668 210.34814453 178.31567383 C210.44240723 179.00129395 210.53666992 179.68691406 210.63378906 180.39331055 C211.73856582 189.48647306 211.58833679 198.67011053 211.59814453 207.81567383 C211.60115067 209.172966 211.60115067 209.172966 211.60421753 210.55767822 C211.62314115 245.49068397 211.62314115 245.49068397 207.34814453 258.31567383 C110.32814453 258.31567383 13.30814453 258.31567383 -86.65185547 258.31567383 C-80.50085178 287.53294135 -69.95889916 310.43398617 -44.65185547 327.31567383 C-19.77594828 343.36745525 10.3881299 347.23637548 39.21923828 341.28442383 C55.99313528 337.46841154 71.74998949 331.05105939 85.34814453 320.31567383 C86.10353516 319.7355957 86.85892578 319.15551758 87.63720703 318.55786133 C94.29092944 313.09312025 98.71704181 306.47283258 103.34814453 299.31567383 C104.00814453 298.32567383 104.66814453 297.33567383 105.34814453 296.31567383 C116.19677564 298.92450149 126.88373374 301.87976391 137.54736328 305.15942383 C139.04024306 305.61529767 140.53323164 306.07081537 142.02632141 306.52600098 C145.91024606 307.71109711 149.7926842 308.90098923 153.67480469 310.09197998 C157.60210724 311.29585863 161.53086186 312.49497903 165.45947266 313.69458008 C178.09343886 317.55394785 190.72300651 321.42751892 203.34814453 325.31567383 C197.1922415 344.1107268 184.35362038 361.55093521 170.79736328 375.74536133 C168.71048096 377.93542284 166.77235352 380.17218432 164.84814453 382.50317383 C160.56488592 387.42587626 155.46948952 391.30562723 150.34814453 395.31567383 C148.91535156 396.48936523 148.91535156 396.48936523 147.45361328 397.68676758 C101.23919389 434.76508865 39.71686679 446.06390317 -18.18823242 440.4909668 C-54.71470544 436.36741298 -89.596392 424.85166839 -119.65185547 403.31567383 C-120.23322266 402.9010791 -120.81458984 402.48648437 -121.41357422 402.05932617 C-167.36899891 368.89412695 -194.55513238 317.75084286 -203.65185547 262.45629883 C-205.90694664 247.73717096 -206.88942824 233.08080591 -206.90185547 218.19067383 C-206.90253021 217.45400482 -206.90320496 216.71733582 -206.90390015 215.95834351 C-206.81665205 155.33559068 -186.14110378 99.568059 -143.58935547 56.00317383 C-116.9185209 30.01077066 -83.05783929 12.50844318 -46.83935547 4.50317383 C-45.95812012 4.30828369 -45.07688477 4.11339355 -44.16894531 3.91259766 C-29.42166108 0.84329038 -15.02125144 -0.03335859 0 0 Z M-64.13232422 127.19848633 C-76.07664542 142.61714537 -82.84194208 158.26610687 -86.65185547 177.31567383 C-28.24185547 177.31567383 30.16814453 177.31567383 90.34814453 177.31567383 C90.34814453 155.33175328 81.99002998 135.55753918 66.75097656 119.71313477 C49.7568865 102.78411083 27.30661102 94.18046746 3.47314453 93.87817383 C-23.15890244 94.08801433 -46.88925356 107.15850814 -64.13232422 127.19848633 Z " fill="#E01B48" transform="translate(1507.65185546875,187.684326171875)"/>
<path d="M0 0 C3.13488079 0.00314528 6.26880034 -0.02034422 9.40356445 -0.0456543 C28.16452798 -0.10542832 46.8802973 1.45883629 65.10083008 6.12817383 C66.13715576 6.38679199 67.17348145 6.64541016 68.24121094 6.91186523 C95.06089563 13.80412135 117.70572398 26.39637567 137.10083008 46.31567383 C137.58422852 46.74235352 138.06762695 47.1690332 138.56567383 47.60864258 C162.20835506 69.24864963 173.57975076 105.29716991 176.10083008 136.31567383 C176.23735335 140.4606666 176.23170684 144.60221995 176.22108459 148.74916077 C176.22236623 150.59216874 176.22236623 150.59216874 176.22367376 152.47240919 C176.22503038 155.86116743 176.22192688 159.24986721 176.2168957 162.63861835 C176.21256054 166.30107103 176.21403979 169.96352204 176.21479797 173.62597656 C176.21532127 179.96426377 176.21219479 186.30254066 176.20656013 192.64082527 C176.19841878 201.80481975 176.19582721 210.96880925 176.19457214 220.13280695 C176.19238576 235.00227777 176.1857369 249.8717431 176.17626953 264.74121094 C176.1670847 279.18196587 176.16000911 293.6227193 176.15576172 308.06347656 C176.15536763 309.39959731 176.15536763 309.39959731 176.15496559 310.7627104 C176.15366051 315.23151199 176.15239681 319.70031358 176.15115368 324.16911519 C176.14079396 361.21797295 176.1223626 398.26682054 176.10083008 435.31567383 C142.44083008 435.31567383 108.78083008 435.31567383 74.10083008 435.31567383 C72.12083008 423.76567383 70.14083008 412.21567383 68.10083008 400.31567383 C67.11083008 395.36567383 66.12083008 390.41567383 65.10083008 385.31567383 C63.88395508 386.69754883 62.66708008 388.07942383 61.41333008 389.50317383 C33.94128866 419.84223514 2.53563146 438.07949898 -39.05886841 440.43814087 C-44.04718338 440.63540994 -49.03264277 440.65346405 -54.02416992 440.62817383 C-55.15737671 440.62543961 -55.15737671 440.62543961 -56.31347656 440.62265015 C-98.00968259 440.45441422 -137.65894807 429.0867244 -167.89916992 399.31567383 C-168.67905273 398.5602832 -169.45893555 397.80489258 -170.26245117 397.02661133 C-181.41984244 385.49268288 -189.47336172 370.68196487 -193.89916992 355.31567383 C-194.10654785 354.61410156 -194.31392578 353.9125293 -194.52758789 353.18969727 C-203.11649893 322.67699671 -199.08594993 287.15796491 -184.24682617 259.35864258 C-164.20177596 223.75649709 -128.70636264 204.35503692 -90.71166992 193.12817383 C-63.81897904 185.74598938 -36.29860264 183.04188948 -8.66113281 179.98974609 C-3.21880038 179.38649077 2.22219603 178.77142406 7.66333008 178.1574707 C16.55444132 177.15585166 25.44601356 176.15851859 34.33939362 175.17722034 C38.64354535 174.70206551 42.94662267 174.21984363 47.24804688 173.72055054 C48.47431919 173.57975838 48.47431919 173.57975838 49.72536469 173.43612194 C51.24595418 173.2612516 52.76625334 173.08382754 54.28617096 172.90321064 C58.24687312 172.45058795 62.11496391 172.23111409 66.10083008 172.31567383 C66.00608587 168.10186735 65.89975385 163.88854649 65.78344727 159.67529297 C65.74556027 158.24698535 65.71064359 156.8185953 65.67895508 155.39013672 C65.30340162 138.66040365 63.73366841 125.61029391 51.67504883 113.12817383 C50.10083008 111.31567383 50.10083008 111.31567383 50.10083008 109.31567383 C49.53235352 109.0449707 48.96387695 108.77426758 48.37817383 108.49536133 C46.02821074 107.27805626 43.88071072 105.88402784 41.66333008 104.44067383 C22.15806643 92.71463557 -5.31891619 92.6247683 -26.98364258 97.81958008 C-46.35806208 102.83727322 -63.76252238 113.33344158 -74.89916992 130.31567383 C-79.10894218 137.93084361 -82.41382439 145.98245647 -84.89916992 154.31567383 C-93.106228 151.98550924 -101.11518894 149.1667539 -109.13745117 146.27270508 C-110.50768468 145.78032043 -111.87798127 145.28811128 -113.24833679 144.79606628 C-116.11407842 143.76642995 -118.97915793 142.73497857 -121.84375 141.70214844 C-125.44834697 140.40262153 -129.05439135 139.10716916 -132.66090584 137.81297493 C-148.46845458 132.13875579 -164.23761856 126.38426135 -179.89916992 120.31567383 C-176.64293999 95.6951306 -160.78147263 71.88761308 -143.89916992 54.31567383 C-143.00713867 53.36047852 -142.11510742 52.4052832 -141.19604492 51.42114258 C-119.17928259 28.25584227 -88.83828087 13.32442539 -57.89916992 6.31567383 C-56.69333252 6.04182861 -56.69333252 6.04182861 -55.46313477 5.76245117 C-52.92464228 5.19850562 -50.38266894 4.65715507 -47.83666992 4.12817383 C-47.09449219 3.97300293 -46.35231445 3.81783203 -45.58764648 3.65795898 C-30.41611559 0.68651647 -15.42768102 -0.03219317 0 0 Z M54.60058594 250.35375977 C53.29730598 250.51968628 53.29730598 250.51968628 51.96769714 250.68896484 C49.08338682 251.05700576 46.19949317 251.42818126 43.31567383 251.80004883 C42.32589602 251.92744698 41.3361182 252.05484512 40.31634712 252.18610382 C35.06280306 252.86266649 29.80960291 253.5418362 24.55664062 254.22290039 C19.17520562 254.92004793 13.7926155 255.60780267 8.4096899 256.29333115 C4.23658441 256.82666082 0.06446038 257.36739291 -4.10745049 257.90998077 C-6.08784074 258.16624842 -8.06858387 258.41980646 -10.04969978 258.67040253 C-19.7402931 259.89855505 -29.34468061 261.25680538 -38.88916016 263.35961914 C-39.97684865 263.59914118 -39.97684865 263.59914118 -41.08651066 263.84350204 C-47.12625943 265.24244625 -52.49669042 267.30033643 -57.89916992 270.31567383 C-58.84405273 270.84161133 -59.78893555 271.36754883 -60.76245117 271.90942383 C-71.74789051 278.45014549 -78.34968339 287.01350561 -82.53979492 299.17504883 C-84.35506937 309.98777056 -83.72619497 320.8535654 -77.89916992 330.31567383 C-68.99600742 342.63638887 -56.47855532 348.94044976 -41.71166992 351.56567383 C-17.05855536 354.82944313 10.16681867 350.73728396 30.90942383 336.37036133 C33.39949063 334.43743276 35.76046248 332.42651326 38.10083008 330.31567383 C38.78532227 329.72399414 39.46981445 329.13231445 40.17504883 328.52270508 C59.37072102 310.83553365 64.88835766 284.30607752 66.10083008 259.31567383 C66.15327172 255.98106919 66.14883548 252.65027095 66.10083008 249.31567383 C62.22023251 249.31567383 58.44223983 249.85823574 54.60058594 250.35375977 Z " fill="#E01B48" transform="translate(217.899169921875,187.684326171875)"/>
<path d="M0 0 C36.96 0 73.92 0 112 0 C112 39.6 112 79.2 112 120 C143.35 120 174.7 120 207 120 C207 152.01 207 184.02 207 217 C175.65 217 144.3 217 112 217 C112.06153675 250.1768378 112.06153675 250.1768378 112.16015625 283.35351562 C112.20862696 296.89168119 112.25309784 310.42977245 112.27099609 323.96801758 C112.28405278 333.82984658 112.31111942 343.69152365 112.35461307 353.55326706 C112.37713783 358.76907585 112.3929161 363.98469788 112.39188385 369.20055962 C112.39113189 374.12297794 112.40929525 379.04498487 112.44116783 383.9672966 C112.44959595 385.76136329 112.45146579 387.55547651 112.44580269 389.34955406 C112.40122755 405.66002835 113.69440505 423.41789202 124.96484375 436.234375 C137.49494213 448.28864686 153.22426531 451.53292991 170.02783203 451.28125 C172.1294136 451.24993423 174.23023846 451.24024183 176.33203125 451.234375 C182.75619291 451.19690971 189.11668472 451.05835264 195.49169922 450.20996094 C199.31506651 449.88992046 203.16326136 450 207 450 C207 481.35 207 512.7 207 545 C156.13309129 554.24852886 99.69032498 555.96520992 54.92236328 525.59033203 C50.7690136 522.59177122 46.85672083 519.36939062 43 516 C42.319375 515.40832031 41.63875 514.81664062 40.9375 514.20703125 C15.98653003 490.81549691 3.92923216 454.17443655 1 421 C0.91868112 420.16376508 0.83736223 419.32753016 0.75357914 418.46595478 C-0.11875145 408.63106631 -0.13442487 398.85426341 -0.11352539 388.9909668 C-0.11324277 387.10729982 -0.11340271 385.22363273 -0.1139679 383.33996582 C-0.11425295 378.26444142 -0.10840362 373.18894101 -0.10139394 368.11342216 C-0.0951116 362.79500181 -0.09455276 357.47658083 -0.09336853 352.15815735 C-0.09026954 342.10399191 -0.08207557 332.04983744 -0.07201904 321.99567682 C-0.06081328 310.54214856 -0.05533624 299.08861975 -0.05032361 287.63508737 C-0.03989167 264.09005078 -0.02156412 240.54502921 0 217 C-20.13 217 -40.26 217 -61 217 C-61 184.99 -61 152.98 -61 120 C-40.87 120 -20.74 120 0 120 C0 80.4 0 40.8 0 0 Z " fill="#E01B48" transform="translate(635,74)"/>
<path d="M0 0 C36.63 0 73.26 0 111 0 C111 39.6 111 79.2 111 120 C142.35 120 173.7 120 206 120 C206 152.01 206 184.02 206 217 C174.65 217 143.3 217 111 217 C111.1198222 248.80375658 111.1198222 248.80375658 111.2578125 280.60742188 C111.31814697 293.58388664 111.37651428 306.56033833 111.421875 319.53686523 C111.45492574 328.98918633 111.4948282 338.44145008 111.54279006 347.89370769 C111.56792561 352.8936647 111.58974434 357.89358431 111.60334396 362.89358711 C111.61628277 367.61069955 111.63846137 372.32768286 111.66738319 377.04472351 C111.67636749 378.76545747 111.68212747 380.48621216 111.68421364 382.20696831 C111.7117444 401.48580838 112.27054037 422.13083579 125.9296875 437.1171875 C138.19687709 449.024899 153.05799067 451.35510295 169.4375 451.20581055 C171.46888174 451.18777626 173.49979708 451.18530034 175.53125 451.18554688 C185.74245451 451.14136378 195.77514576 450.56804746 206 450 C206 481.35 206 512.7 206 545 C190.1448999 548.39752145 190.1448999 548.39752145 184.4375 549.125 C182.76494141 549.34542969 182.76494141 549.34542969 181.05859375 549.5703125 C137.71316851 554.45430408 87.44378603 550.65013059 51.515625 523.05859375 C25.4233079 501.70665103 10.43090417 473.7050741 3.6875 440.875 C3.54022461 440.16182617 3.39294922 439.44865234 3.24121094 438.71386719 C0.33523569 423.23121216 -0.29304334 407.65201333 -0.22705078 391.94262695 C-0.22648482 390.01866665 -0.22680683 388.09470591 -0.22793579 386.17074585 C-0.22850308 381.01290548 -0.21685129 375.85516059 -0.20278788 370.69734216 C-0.19017508 365.2828676 -0.18910179 359.86839018 -0.18673706 354.4539032 C-0.18055299 344.22992538 -0.16418433 334.005991 -0.14403808 323.78203219 C-0.1215827 312.13006605 -0.11066155 300.47809769 -0.10064721 288.82611525 C-0.07981493 264.8840473 -0.04317771 240.9420388 0 217 C-20.13 217 -40.26 217 -61 217 C-61 184.99 -61 152.98 -61 120 C-40.87 120 -20.74 120 0 120 C0 80.4 0 40.8 0 0 Z " fill="#E01B48" transform="translate(1771,74)"/>
<path d="M0 0 C36.63 0 73.26 0 111 0 C111 203.94 111 407.88 111 618 C74.37 618 37.74 618 0 618 C0 414.06 0 210.12 0 0 Z " fill="#E01B48" transform="translate(441,5)"/>
<path d="M0 0 C0.66 0.33 1.32 0.66 2 1 C-6.58 9.58 -15.16 18.16 -24 27 C-24.66 26.67 -25.32 26.34 -26 26 C-17.69143022 16.89252928 -9.25328565 8.15170402 0 0 Z " fill="#C6123C" transform="translate(1376,233)"/>
</svg>
